<svg xmlns="http://www.w3.org/2000/svg" viewBox="0 0 48 48" fill="none" role="img" aria-hidden="true">
  <defs>
    <linearGradient id="live-bg" x1="6" y1="4" x2="42" y2="44" gradientUnits="userSpaceOnUse">
      <stop stop-color="#1E2740"/>
      <stop offset="1" stop-color="#0E1424"/>
    </linearGradient>
    <linearGradient id="live-gold" x1="10" y1="8" x2="38" y2="40" gradientUnits="userSpaceOnUse">
      <stop stop-color="#FFE082"/>
      <stop offset="0.5" stop-color="#FFB300"/>
      <stop offset="1" stop-color="#F57C00"/>
    </linearGradient>
  </defs>
  <rect x="2" y="2" width="44" height="44" rx="11" fill="url(#live-bg)"/>
  <rect x="2" y="2" width="44" height="44" rx="11" stroke="#FFB300" stroke-opacity="0.25" stroke-width="1"/>
  <circle cx="24" cy="26" r="14" fill="#0A1020" stroke="url(#live-gold)" stroke-width="2"/>
  <circle cx="24" cy="26" r="10" fill="none" stroke="url(#live-gold)" stroke-width="1.5" opacity="0.6"/>
  <path d="M24 12v4M24 36v4M10 26h4M34 26h4" stroke="url(#live-gold)" stroke-width="1.5" stroke-linecap="round" opacity="0.7"/>
  <path d="M14.5 16.5l2.8 2.8M30.7 32.7l2.8 2.8M14.5 35.5l2.8-2.8M30.7 19.3l2.8-2.8" stroke="url(#live-gold)" stroke-width="1.2" stroke-linecap="round" opacity="0.45"/>
  <circle cx="24" cy="26" r="3.5" fill="url(#live-gold)"/>
  <circle cx="27" cy="23" r="1.2" fill="#FFFFFF"/>
  <rect x="8" y="8" width="14" height="7" rx="3.5" fill="#E53935"/>
  <circle cx="11.5" cy="11.5" r="1.5" fill="#FFFFFF"/>
  <text x="14" y="13.2" fill="#FFFFFF" font-size="5.5" font-weight="700" font-family="Arial,sans-serif">LIVE</text>
</svg>
