<svg xmlns="http://www.w3.org/2000/svg" viewBox="0 0 48 48" fill="none" role="img" aria-hidden="true">
  <defs>
    <linearGradient id="table-bg" x1="6" y1="4" x2="42" y2="44" gradientUnits="userSpaceOnUse">
      <stop stop-color="#1E2740"/>
      <stop offset="1" stop-color="#0E1424"/>
    </linearGradient>
    <linearGradient id="table-gold" x1="10" y1="8" x2="38" y2="40" gradientUnits="userSpaceOnUse">
      <stop stop-color="#FFE082"/>
      <stop offset="0.5" stop-color="#FFB300"/>
      <stop offset="1" stop-color="#F57C00"/>
    </linearGradient>
  </defs>
  <rect x="2" y="2" width="44" height="44" rx="11" fill="url(#table-bg)"/>
  <rect x="2" y="2" width="44" height="44" rx="11" stroke="#FFB300" stroke-opacity="0.25" stroke-width="1"/>
  <ellipse cx="24" cy="36" rx="16" ry="4" fill="url(#table-gold)" opacity="0.35"/>
  <rect x="10" y="12" width="12" height="16" rx="2" fill="#FFFFFF" transform="rotate(-12 16 20)"/>
  <rect x="10" y="12" width="12" height="16" rx="2" stroke="url(#table-gold)" stroke-width="1.5" transform="rotate(-12 16 20)"/>
  <text x="13.5" y="24" fill="#E53935" font-size="9" font-weight="800" font-family="Arial,sans-serif" transform="rotate(-12 16 20)">A</text>
  <rect x="22" y="10" width="12" height="16" rx="2" fill="#FFFFFF" transform="rotate(10 28 18)"/>
  <rect x="22" y="10" width="12" height="16" rx="2" stroke="url(#table-gold)" stroke-width="1.5" transform="rotate(10 28 18)"/>
  <path d="M26 18l2 2 4-4" stroke="#2E7D32" stroke-width="1.8" stroke-linecap="round" stroke-linejoin="round" transform="rotate(10 28 18)"/>
  <circle cx="34" cy="30" r="6" fill="url(#table-gold)"/>
  <circle cx="34" cy="30" r="4" fill="none" stroke="#0E1424" stroke-width="1.2" opacity="0.5"/>
  <circle cx="34" cy="30" r="2" fill="none" stroke="#0E1424" stroke-width="1" opacity="0.35"/>
</svg>
