<svg xmlns="http://www.w3.org/2000/svg" viewBox="0 0 120 46" fill="none" role="img" aria-label="Bitcoin">  <circle cx="22" cy="23" r="12" fill="#F7931A"/>
  <path fill="#fff" d="M23.2 20.1c.5-.3.8-.8.8-1.5-.1-1.1-.9-1.7-2.4-1.7h-1.8v9.4h3.4c1.6 0 2.6-.6 2.6-1.9 0-.8-.4-1.4-1-1.7zm-2-4.1h1.5c.8 0 1.3.4 1.3 1.1s-.5 1.1-1.3 1.1h-1.5V16zm1.6 6.8h-1.6v-3.2h1.6c.9 0 1.4.4 1.4 1.1s-.5 1.1-1.4 1.1z"/>
  <text x="72" y="28" text-anchor="middle" fill="#F7931A" font-family="Arial, Helvetica, sans-serif" font-size="13" font-weight="700">Bitcoin</text>
</svg>
